<svg xmlns="http://www.w3.org/2000/svg" xmlns:xlink="http://www.w3.org/1999/xlink" preserveAspectRatio="xMidYMid" width="34.4" height="27.97" viewBox="0 0 34.4 27.97">
  <defs>
    <style>
      .cls-1 {
        fill: #fff;
        fill-rule: evenodd;
      }
    </style>
  </defs>
  <path d="M10.445,21.889 C6.771,21.762 4.473,19.124 3.866,16.982 C4.888,17.179 5.894,17.140 6.897,16.894 C6.921,16.888 6.947,16.868 6.996,16.847 C5.007,16.385 3.472,15.318 2.404,13.603 C1.696,12.462 1.360,11.213 1.372,9.842 C2.365,10.372 3.401,10.670 4.516,10.698 C3.021,9.621 2.017,8.214 1.605,6.413 C1.198,4.614 1.463,2.902 2.365,1.290 C6.193,5.800 11.038,8.272 16.947,8.676 C16.905,8.397 16.862,8.154 16.832,7.905 C16.638,6.242 16.967,4.690 17.864,3.282 C18.988,1.518 20.597,0.420 22.660,0.085 C25.037,-0.305 27.113,0.375 28.849,2.057 C28.966,2.169 29.065,2.206 29.227,2.169 C30.679,1.853 32.049,1.331 33.336,0.587 C33.368,0.570 33.400,0.554 33.431,0.540 C33.437,0.534 33.451,0.534 33.479,0.534 C32.917,2.180 31.900,3.448 30.451,4.384 C31.822,4.232 33.129,3.870 34.388,3.324 C34.400,3.336 34.408,3.345 34.416,3.355 C34.147,3.710 33.886,4.072 33.603,4.417 C32.854,5.340 31.994,6.153 31.035,6.857 C30.953,6.918 30.914,6.976 30.916,7.080 C30.955,8.128 30.914,9.178 30.785,10.219 C30.514,12.419 29.899,14.512 28.964,16.514 C27.995,18.580 26.732,20.446 25.144,22.090 C22.450,24.872 19.205,26.667 15.426,27.501 C14.133,27.787 12.816,27.932 11.489,27.970 C7.411,28.090 3.644,27.075 0.176,24.933 C0.130,24.908 0.087,24.875 0.009,24.825 C2.475,25.091 4.823,24.774 7.081,23.850 C8.281,23.360 9.393,22.714 10.445,21.889 Z" class="cls-1"/>
</svg>
