<svg xmlns="http://www.w3.org/2000/svg" xmlns:xlink="http://www.w3.org/1999/xlink" preserveAspectRatio="xMidYMid" width="29.62" height="29.6" viewBox="0 0 29.62 29.6">
  <defs>
    <style>
      .cls-1 {
        fill: #fff;
        fill-rule: evenodd;
      }
    </style>
  </defs>
  <path d="M29.144,23.358 C28.258,26.727 26.066,28.730 22.656,29.281 C20.080,29.699 8.598,29.775 6.262,29.173 C2.887,28.304 0.874,26.119 0.311,22.713 C-0.099,20.222 -0.241,8.606 0.465,6.088 C1.382,2.813 3.556,0.876 6.872,0.335 C9.774,-0.137 18.040,-0.017 21.521,0.172 C23.565,0.281 25.429,0.924 26.952,2.377 C28.400,3.760 29.148,5.483 29.347,7.433 C29.583,9.766 29.821,20.772 29.144,23.358 ZM26.681,7.688 C26.398,5.083 24.799,3.363 22.216,2.966 C19.702,2.582 10.261,2.614 7.638,2.907 C5.052,3.196 3.335,4.797 2.945,7.362 C2.531,10.086 2.612,20.270 2.950,22.309 C3.302,24.441 4.515,25.899 6.635,26.491 C8.849,27.112 19.517,26.967 21.908,26.706 C24.509,26.420 26.226,24.820 26.621,22.232 C27.021,19.620 26.946,10.119 26.681,7.688 ZM22.666,8.698 C21.677,8.698 20.897,7.919 20.890,6.930 C20.882,5.929 21.681,5.134 22.685,5.142 C23.668,5.147 24.451,5.941 24.447,6.928 C24.443,7.916 23.657,8.698 22.666,8.698 ZM14.764,22.399 C10.577,22.391 7.190,18.997 7.188,14.814 C7.186,10.610 10.582,7.210 14.780,7.212 C18.984,7.213 22.378,10.610 22.376,14.814 C22.374,19.013 18.966,22.409 14.764,22.399 ZM14.802,9.894 C12.070,9.894 9.872,12.078 9.871,14.787 C9.869,17.500 12.050,19.712 14.729,19.718 C17.486,19.720 19.690,17.547 19.692,14.825 C19.692,12.098 17.508,9.896 14.802,9.894 Z" class="cls-1"/>
</svg>
