<svg xmlns="http://www.w3.org/2000/svg" xmlns:xlink="http://www.w3.org/1999/xlink" preserveAspectRatio="xMidYMid" width="63.87" height="63.88" viewBox="0 0 63.87 63.88">
  <defs>
    <style>
      .cls-1 {
        fill: url(#linear-gradient-1);
        fill-rule: evenodd;
      }
    </style>

    <linearGradient id="linear-gradient-1" gradientUnits="userSpaceOnUse" x1="31.935" y1="63.875" x2="31.935" y2="0.005">
      <stop offset="NaN" stop-color="#46c9f2"/>
      <stop offset="NaN" stop-color="#70c4d8"/>
      <stop offset="NaN" stop-color="#3cf"/>
      <stop offset="NaN" stop-color="#46c9f2"/>
      <stop offset="Infinity" stop-color="#006a9e"/>
    </linearGradient>
  </defs>
  <path d="M54.009,63.864 L9.838,63.864 C4.408,63.864 -0.010,59.444 -0.010,54.009 L-0.010,9.845 C-0.010,4.415 4.408,-0.003 9.838,-0.003 L54.009,-0.003 C59.439,-0.003 63.857,4.415 63.857,9.845 L63.857,54.009 C63.857,59.444 59.439,63.864 54.009,63.864 ZM41.776,61.826 L48.573,61.826 L48.573,55.028 L41.776,55.028 L41.776,61.826 ZM15.275,61.826 L22.074,61.826 L22.074,55.028 L15.275,55.028 L15.275,61.826 ZM61.820,9.845 C61.820,5.539 58.315,2.035 54.009,2.035 L32.947,2.035 L32.947,17.714 C37.899,18.225 41.776,22.426 41.776,27.516 C41.776,28.079 41.320,28.535 40.757,28.535 L23.093,28.535 C22.530,28.535 22.074,28.079 22.074,27.516 C22.074,22.426 25.952,18.225 30.909,17.714 L30.909,2.035 L9.838,2.035 C5.532,2.035 2.028,5.539 2.028,9.845 L2.028,54.009 C2.028,58.319 5.532,61.826 9.838,61.826 L13.237,61.826 L13.237,54.009 C13.237,53.446 13.693,52.990 14.256,52.990 L23.093,52.990 C23.656,52.990 24.112,53.446 24.112,54.009 L24.112,61.826 L30.909,61.826 L30.909,46.199 L14.256,46.199 C13.693,46.199 13.237,45.743 13.237,45.180 C13.237,44.617 13.693,44.161 14.256,44.161 L49.592,44.161 C50.155,44.161 50.611,44.617 50.611,45.180 C50.611,45.743 50.155,46.199 49.592,46.199 L32.947,46.199 L32.947,61.826 L39.738,61.826 L39.738,54.009 C39.738,53.446 40.194,52.990 40.757,52.990 L49.592,52.990 C50.155,52.990 50.611,53.446 50.611,54.009 L50.611,61.826 L54.009,61.826 C58.315,61.826 61.820,58.319 61.820,54.009 L61.820,9.845 ZM31.928,19.699 C27.964,19.699 24.679,22.667 24.177,26.497 L39.672,26.497 C39.171,22.667 35.890,19.699 31.928,19.699 Z" class="cls-1"/>
</svg>
