<svg xmlns="http://www.w3.org/2000/svg" xmlns:xlink="http://www.w3.org/1999/xlink" preserveAspectRatio="xMidYMid" width="53.16" height="61.94" viewBox="0 0 53.16 61.94">
  <defs>
    <style>
      .cls-1 {
        fill: url(#linear-gradient-1);
        fill-rule: evenodd;
      }
    </style>

    <linearGradient id="linear-gradient-1" gradientUnits="userSpaceOnUse" x1="26.58" y1="57.55" x2="26.58" y2="4.39">
      <stop offset="NaN" stop-color="#46c9f2"/>
      <stop offset="NaN" stop-color="#70c4d8"/>
      <stop offset="NaN" stop-color="#3cf"/>
      <stop offset="NaN" stop-color="#46c9f2"/>
      <stop offset="Infinity" stop-color="#006a9e"/>
    </linearGradient>
  </defs>
  <path d="M9.686,50.181 L9.686,45.162 L8.251,45.162 L8.251,45.164 C8.250,45.164 8.250,45.164 8.250,45.164 L8.250,59.358 L9.136,59.358 C9.222,59.358 9.295,59.404 9.295,59.457 L9.295,60.243 L9.995,60.243 C10.114,60.243 10.207,60.296 10.207,60.355 L10.207,60.931 C10.527,60.950 10.832,60.970 11.113,60.994 C11.724,61.046 12.194,61.106 12.525,61.173 C12.855,61.241 13.020,61.311 13.020,61.384 C13.020,61.457 12.855,61.527 12.525,61.595 C12.194,61.662 11.724,61.722 11.113,61.774 C10.503,61.825 9.799,61.865 9.001,61.893 C8.204,61.921 7.373,61.935 6.510,61.935 C5.647,61.935 4.816,61.921 4.019,61.893 C3.221,61.865 2.517,61.825 1.907,61.774 C1.296,61.722 0.826,61.662 0.496,61.595 C0.165,61.527 -0.000,61.457 -0.000,61.384 C-0.000,61.311 0.165,61.241 0.496,61.173 C0.826,61.106 1.296,61.046 1.907,60.994 C2.188,60.970 2.494,60.950 2.815,60.931 L2.815,60.355 C2.815,60.296 2.908,60.243 3.027,60.243 L3.727,60.243 L3.727,59.457 C3.727,59.404 3.799,59.358 3.885,59.358 L4.770,59.358 L4.770,1.035 L8.250,1.035 L8.250,5.420 C8.250,5.420 8.250,5.420 8.251,5.420 L8.251,5.422 L9.686,5.422 L9.686,0.403 L53.155,0.403 L53.155,50.181 L9.686,50.181 ZM9.686,7.374 L8.251,7.374 L8.251,7.375 C8.250,7.375 8.250,7.375 8.250,7.375 L8.250,18.016 C8.250,18.016 8.250,18.016 8.251,18.016 L8.251,18.018 L9.686,18.018 L9.686,7.374 ZM9.686,19.970 L8.251,19.970 L8.251,19.971 C8.250,19.971 8.250,19.971 8.250,19.971 L8.250,30.612 C8.250,30.612 8.250,30.612 8.251,30.612 L8.251,30.614 L9.686,30.614 L9.686,19.970 ZM9.686,32.566 L8.251,32.566 L8.251,32.568 C8.250,32.568 8.250,32.568 8.250,32.568 L8.250,43.208 C8.250,43.208 8.250,43.208 8.251,43.208 L8.251,43.210 L9.686,43.210 L9.686,32.566 ZM51.117,2.440 L11.724,2.440 L11.724,48.144 L51.117,48.144 L51.117,2.440 ZM9.136,1.034 L3.885,1.034 C3.799,1.034 3.727,0.988 3.727,0.935 L3.727,0.103 C3.727,0.043 3.799,-0.003 3.885,-0.003 L9.136,-0.003 C9.222,-0.003 9.295,0.043 9.295,0.103 L9.295,0.935 C9.295,0.988 9.222,1.034 9.136,1.034 Z" class="cls-1"/>
</svg>
