<svg xmlns="http://www.w3.org/2000/svg" xmlns:xlink="http://www.w3.org/1999/xlink" preserveAspectRatio="xMidYMid" width="15.44" height="29.6" viewBox="0 0 15.44 29.6">
  <defs>
    <style>
      .cls-1 {
        fill: #fff;
        fill-rule: evenodd;
      }
    </style>
  </defs>
  <path d="M12.315,5.002 C13.232,4.970 14.149,4.995 15.068,4.993 L15.446,4.993 L15.446,0.223 C14.956,0.174 14.446,0.104 13.932,0.078 C12.989,0.037 12.048,-0.011 11.106,0.011 C9.669,0.041 8.309,0.391 7.120,1.243 C5.757,2.223 5.008,3.601 4.725,5.226 C4.605,5.897 4.577,6.591 4.559,7.273 C4.531,8.344 4.555,9.414 4.555,10.485 L4.555,10.887 L-0.011,10.887 L-0.011,16.215 L4.528,16.215 L4.528,29.609 L10.074,29.609 L10.074,16.238 L14.598,16.238 C14.830,14.464 15.055,12.710 15.293,10.883 C14.929,10.883 14.603,10.883 14.275,10.883 C12.989,10.887 10.037,10.883 10.037,10.883 C10.037,10.883 10.052,8.242 10.083,7.096 C10.126,5.527 11.057,5.048 12.315,5.002 Z" class="cls-1"/>
</svg>
