<svg xmlns="http://www.w3.org/2000/svg" xmlns:xlink="http://www.w3.org/1999/xlink" preserveAspectRatio="xMidYMid" width="335.66" height="47.31" viewBox="0 0 335.66 47.31">
  <defs>
    <style>
      .cls-1 {
        fill: #006a9e;
        fill-rule: evenodd;
      }
    </style>
  </defs>
  <path d="M316.726,10.056 L323.015,1.395 L334.379,1.395 L322.452,17.972 L316.726,10.056 ZM324.296,45.288 L292.814,1.395 L304.207,1.395 L335.660,45.288 L324.296,45.288 ZM310.341,34.772 L302.763,45.288 L291.404,45.288 L304.674,26.885 L310.341,34.772 ZM256.511,36.089 L273.383,36.089 L273.383,45.288 L256.511,45.288 L256.511,36.089 ZM256.511,18.776 L273.383,18.776 L273.383,27.975 L256.511,27.975 L256.511,18.776 ZM256.511,1.395 L273.383,1.395 L273.383,10.599 L256.511,10.599 L256.511,1.395 ZM242.055,1.395 L251.287,1.395 L251.287,45.288 L242.055,45.288 L242.055,1.395 ZM204.408,21.114 L214.299,1.395 L224.631,1.395 L209.575,31.310 L204.408,21.114 ZM201.529,47.306 L178.435,1.395 L188.730,1.395 L206.729,37.115 L201.529,47.306 ZM123.840,-0.016 L152.443,25.889 L152.443,1.395 L161.678,1.395 L161.678,46.699 L123.840,12.492 L123.840,-0.016 ZM89.403,44.390 C86.398,45.801 83.256,46.506 79.980,46.506 C75.390,46.506 71.187,45.181 67.369,42.531 C64.615,40.607 62.394,38.226 60.700,35.379 C59.014,32.541 57.967,29.429 57.570,26.052 L66.901,26.052 C67.356,28.211 68.170,30.070 69.339,31.630 C70.611,33.362 72.168,34.700 74.004,35.636 C75.882,36.602 77.864,37.081 79.951,37.081 C83.143,37.081 85.914,36.093 88.260,34.114 C90.609,32.139 92.207,29.450 93.067,26.052 L102.390,26.052 C101.764,30.818 99.969,34.977 97.007,38.525 C94.899,41.047 92.366,43.001 89.403,44.390 ZM90.563,15.151 C89.370,13.527 87.901,12.244 86.148,11.304 C84.187,10.257 82.121,9.731 79.951,9.731 C76.737,9.731 73.937,10.744 71.546,12.762 C69.159,14.784 67.607,17.451 66.901,20.760 L57.570,20.760 C58.113,16.211 59.803,12.180 62.645,8.675 C64.790,6.046 67.348,4.007 70.311,2.549 C73.378,1.057 76.600,0.309 79.980,0.309 C84.383,0.309 88.452,1.523 92.191,3.960 C95.003,5.824 97.290,8.192 99.043,11.082 C100.796,13.963 101.910,17.195 102.390,20.760 L93.067,20.760 C92.499,18.520 91.665,16.647 90.563,15.151 ZM25.265,46.506 L25.265,36.952 C28.604,36.268 31.324,34.529 33.432,31.729 L40.726,37.500 C36.699,42.757 31.546,45.758 25.265,46.506 ZM25.265,9.859 L25.265,0.309 C28.541,0.780 31.441,1.746 33.966,3.208 C36.491,4.674 38.711,6.687 40.635,9.252 L33.403,15.117 C31.274,12.257 28.562,10.500 25.265,9.859 ZM2.258,33.524 C0.756,30.361 0.005,27.005 0.005,23.453 C0.005,18.195 1.561,13.497 4.671,9.346 C8.426,4.328 13.580,1.314 20.132,0.309 L20.132,9.859 C17.545,10.500 15.416,11.582 13.747,13.099 C12.349,14.382 11.247,15.942 10.446,17.780 C9.641,19.618 9.240,21.512 9.240,23.453 C9.240,26.274 10.033,28.873 11.619,31.246 C13.538,34.088 16.376,36.003 20.132,36.987 L20.132,46.506 C15.771,45.865 11.994,44.275 8.802,41.732 C5.985,39.509 3.802,36.773 2.258,33.524 ZM133.072,45.288 L123.840,45.288 L123.840,19.447 L133.072,27.719 L133.072,45.288 Z" class="cls-1"/>
</svg>
