<svg xmlns="http://www.w3.org/2000/svg" xmlns:xlink="http://www.w3.org/1999/xlink" preserveAspectRatio="xMidYMid" width="54.85" height="69.43" viewBox="0 0 54.85 69.43">
  <defs>
    <style>
      .cls-1 {
        fill: #fff;
        fill-rule: evenodd;
      }
    </style>
  </defs>
  <path d="M51.872,22.469 C51.418,22.797 50.782,22.702 50.449,22.244 C47.980,18.850 38.922,7.883 25.536,8.998 C12.556,10.103 4.487,21.971 2.324,25.582 C2.133,25.901 1.797,26.078 1.451,26.078 C1.272,26.078 1.091,26.031 0.927,25.932 C0.444,25.644 0.287,25.018 0.577,24.535 C2.866,20.714 11.418,8.155 25.365,6.968 C39.742,5.735 49.468,17.433 52.097,21.046 C52.427,21.501 52.328,22.139 51.872,22.469 ZM48.428,10.547 C46.854,9.001 38.355,1.342 25.594,2.100 C17.330,2.672 9.774,6.429 4.326,12.679 C4.125,12.910 3.843,13.028 3.558,13.028 C3.319,13.028 3.082,12.945 2.889,12.777 C2.464,12.407 2.420,11.763 2.790,11.340 C8.594,4.681 16.647,0.677 25.462,0.066 C39.075,-0.741 48.175,7.441 49.856,9.094 C50.258,9.488 50.262,10.133 49.868,10.535 C49.474,10.937 48.829,10.942 48.428,10.547 ZM17.043,36.447 C17.370,35.959 17.692,35.460 18.012,34.960 C20.116,31.690 22.289,28.309 26.173,27.789 C29.739,27.382 33.153,29.143 34.890,32.255 C36.190,34.908 35.655,38.017 33.127,42.700 C28.849,50.632 21.467,58.241 11.181,65.318 C11.006,65.439 10.805,65.497 10.604,65.497 C10.282,65.497 9.963,65.343 9.764,65.055 C9.446,64.592 9.563,63.958 10.027,63.638 C20.042,56.747 27.212,49.377 31.333,41.733 C33.512,37.694 34.037,35.142 33.086,33.199 C31.774,30.854 29.142,29.509 26.422,29.812 C23.493,30.204 21.664,33.049 19.726,36.062 C19.397,36.572 19.069,37.083 18.735,37.582 C14.574,43.783 8.807,49.303 1.598,53.989 C1.128,54.294 0.498,54.163 0.189,53.690 C-0.117,53.218 0.016,52.588 0.488,52.280 C7.466,47.745 13.036,42.418 17.043,36.447 ZM3.076,59.465 C8.897,55.595 14.218,50.998 18.894,45.798 C21.747,42.616 24.374,39.183 26.704,35.595 C27.011,35.122 27.645,34.991 28.113,35.295 C28.585,35.601 28.718,36.232 28.411,36.703 C26.028,40.380 23.335,43.898 20.410,47.159 C15.619,52.487 10.166,57.197 4.203,61.162 C4.030,61.277 3.835,61.332 3.640,61.332 C3.311,61.332 2.987,61.173 2.792,60.877 C2.480,60.409 2.607,59.776 3.076,59.465 ZM20.265,62.878 C22.428,61.535 23.849,60.628 25.620,60.863 C28.145,61.197 30.322,64.078 31.161,68.203 C31.273,68.754 30.917,69.293 30.366,69.404 C30.298,69.418 30.228,69.425 30.161,69.425 C29.687,69.425 29.263,69.093 29.164,68.609 C28.521,65.449 26.953,63.095 25.351,62.883 C24.338,62.749 23.206,63.451 21.495,64.514 C20.084,65.392 18.922,66.324 17.889,67.373 C17.493,67.774 16.844,67.778 16.448,67.384 C16.046,66.989 16.042,66.344 16.436,65.943 C17.583,64.780 18.870,63.749 20.265,62.878 ZM32.131,50.561 C32.347,50.042 32.940,49.796 33.464,50.016 C33.983,50.234 34.228,50.831 34.009,51.349 C33.106,53.503 32.936,55.929 33.533,58.182 C34.341,60.956 36.281,63.348 38.850,64.723 C39.348,64.988 39.535,65.605 39.268,66.102 C39.085,66.445 38.733,66.640 38.371,66.640 C38.208,66.640 38.042,66.601 37.891,66.520 C34.839,64.888 32.536,62.047 31.569,58.727 C30.851,56.018 31.054,53.126 32.131,50.561 ZM38.713,39.939 C39.433,35.820 40.114,31.929 37.814,28.308 C35.505,24.893 31.643,22.700 27.500,22.466 C24.515,22.419 21.534,23.342 19.119,25.140 C16.864,26.766 15.953,28.413 14.689,30.692 C13.949,32.028 13.111,33.542 11.854,35.317 C9.233,38.977 6.039,42.139 2.352,44.717 C1.896,45.037 1.258,44.928 0.933,44.466 C0.611,44.005 0.724,43.370 1.186,43.047 C4.680,40.602 7.711,37.603 10.194,34.135 C11.384,32.455 12.194,30.995 12.906,29.705 C14.192,27.384 15.302,25.379 17.915,23.497 C20.683,21.437 24.064,20.349 27.584,20.430 C32.389,20.701 36.839,23.228 39.517,27.192 C42.257,31.503 41.477,35.969 40.721,40.289 C39.987,44.489 39.226,48.831 41.553,53.293 C42.908,55.785 44.907,57.913 47.325,59.434 C47.801,59.733 47.944,60.362 47.644,60.839 C47.451,61.147 47.120,61.315 46.782,61.315 C46.595,61.315 46.408,61.264 46.239,61.159 C43.528,59.454 41.286,57.065 39.754,54.250 C37.101,49.160 37.957,44.261 38.713,39.939 ZM45.433,39.848 C45.980,38.091 46.547,36.274 46.505,33.814 C46.276,27.862 43.216,22.246 38.317,18.814 C37.619,18.333 31.185,14.132 23.224,16.055 C22.120,16.317 16.444,17.866 12.769,22.650 C12.063,23.561 11.587,24.398 11.082,25.285 C10.365,26.541 9.554,27.966 7.956,29.864 C6.364,31.749 4.557,33.451 2.581,34.925 C2.129,35.258 1.491,35.168 1.156,34.717 C0.820,34.266 0.912,33.627 1.363,33.291 C3.214,31.911 4.907,30.316 6.398,28.550 C7.876,26.796 8.606,25.515 9.311,24.277 C9.852,23.326 10.363,22.427 11.155,21.405 C15.247,16.079 21.531,14.362 22.748,14.073 C31.581,11.946 38.697,16.602 39.479,17.139 C44.903,20.941 48.288,27.151 48.543,33.758 C48.591,36.567 47.946,38.633 47.377,40.455 C46.704,42.614 46.123,44.478 46.746,47.189 C47.488,50.045 49.072,52.602 51.321,54.555 C51.745,54.924 51.790,55.567 51.420,55.992 C51.219,56.224 50.937,56.342 50.652,56.342 C50.415,56.342 50.177,56.260 49.984,56.093 C47.425,53.868 45.620,50.957 44.766,47.675 C44.012,44.398 44.734,42.085 45.433,39.848 ZM51.247,47.925 C53.599,40.973 53.277,33.441 50.340,26.716 C50.115,26.201 50.350,25.600 50.865,25.375 C51.382,25.149 51.981,25.384 52.206,25.900 C55.348,33.091 55.693,41.145 53.177,48.578 C53.034,49.003 52.638,49.270 52.212,49.270 C52.105,49.270 51.993,49.254 51.886,49.217 C51.353,49.037 51.066,48.459 51.247,47.925 Z" class="cls-1"/>
</svg>
