<svg xmlns="http://www.w3.org/2000/svg" xmlns:xlink="http://www.w3.org/1999/xlink" preserveAspectRatio="xMidYMid" width="61.81" height="61.82" viewBox="0 0 61.81 61.82">
  <defs>
    <style>
      .cls-1 {
        fill: url(#linear-gradient-1);
        fill-rule: evenodd;
      }
    </style>

    <linearGradient id="linear-gradient-1" gradientUnits="userSpaceOnUse" x1="30.905" y1="61.815" x2="30.905" y2="0.005">
      <stop offset="NaN" stop-color="#46c9f2"/>
      <stop offset="NaN" stop-color="#70c4d8"/>
      <stop offset="NaN" stop-color="#3cf"/>
      <stop offset="NaN" stop-color="#46c9f2"/>
      <stop offset="Infinity" stop-color="#006a9e"/>
    </linearGradient>
  </defs>
  <path d="M61.822,31.931 L55.792,31.931 C55.784,32.657 55.754,33.382 55.686,34.106 C55.604,34.919 55.485,35.724 55.326,36.524 C55.166,37.323 54.969,38.113 54.733,38.893 C54.496,39.674 54.221,40.441 53.909,41.194 C53.598,41.946 53.250,42.683 52.866,43.401 C52.478,44.123 52.062,44.822 51.606,45.499 C51.157,46.175 50.671,46.829 50.154,47.460 C49.637,48.089 49.089,48.693 48.512,49.270 C47.935,49.846 47.332,50.394 46.703,50.910 C46.071,51.428 45.418,51.914 44.739,52.367 C44.063,52.819 43.362,53.238 42.644,53.622 C41.926,54.007 41.190,54.354 40.435,54.667 C39.683,54.979 38.917,55.253 38.137,55.491 C37.353,55.727 36.565,55.924 35.765,56.084 C34.965,56.243 34.161,56.362 33.347,56.442 C32.874,56.488 32.400,56.492 31.927,56.512 L31.927,61.826 L29.889,61.826 L29.889,56.512 C29.415,56.492 28.941,56.488 28.468,56.442 C27.656,56.362 26.853,56.243 26.051,56.084 C25.253,55.925 24.463,55.727 23.681,55.491 C22.901,55.253 22.133,54.979 21.380,54.667 C20.626,54.354 19.890,54.006 19.172,53.621 C18.453,53.239 17.757,52.819 17.078,52.366 C16.400,51.914 15.747,51.428 15.116,50.912 C14.484,50.394 13.879,49.846 13.304,49.269 C12.728,48.693 12.181,48.089 11.664,47.460 C11.147,46.831 10.663,46.177 10.209,45.499 C9.756,44.820 9.336,44.121 8.952,43.401 C8.570,42.683 8.221,41.948 7.907,41.194 C7.595,40.439 7.322,39.673 7.085,38.893 C6.848,38.113 6.649,37.321 6.492,36.521 C6.333,35.723 6.212,34.917 6.132,34.106 C6.061,33.384 6.033,32.658 6.026,31.931 L-0.007,31.931 L-0.007,29.893 L6.100,29.893 C6.117,29.670 6.111,29.446 6.134,29.224 C6.212,28.416 6.333,27.609 6.492,26.808 C6.649,26.011 6.848,25.220 7.085,24.440 C7.322,23.660 7.595,22.894 7.907,22.139 C8.221,21.385 8.570,20.650 8.952,19.931 C9.336,19.211 9.756,18.514 10.207,17.835 C10.663,17.156 11.147,16.501 11.666,15.871 C12.181,15.243 12.728,14.640 13.306,14.063 C13.879,13.487 14.484,12.939 15.114,12.421 C15.745,11.905 16.400,11.419 17.078,10.966 C17.757,10.514 18.453,10.095 19.174,9.710 C19.892,9.326 20.628,8.978 21.380,8.666 C22.133,8.354 22.901,8.079 23.681,7.842 C24.463,7.606 25.253,7.408 26.051,7.249 C26.853,7.090 27.656,6.970 28.468,6.890 C28.941,6.844 29.415,6.840 29.889,6.820 L29.889,-0.003 L31.927,-0.003 L31.927,6.820 C32.400,6.840 32.874,6.844 33.347,6.890 C34.161,6.970 34.965,7.090 35.765,7.249 C36.565,7.408 37.353,7.606 38.135,7.842 C38.917,8.079 39.683,8.354 40.435,8.666 C41.188,8.977 41.924,9.326 42.644,9.709 C43.362,10.095 44.061,10.514 44.739,10.965 C45.418,11.419 46.073,11.905 46.701,12.421 C47.332,12.939 47.935,13.487 48.512,14.063 C49.089,14.640 49.637,15.243 50.154,15.873 C50.669,16.502 51.155,17.157 51.608,17.834 C52.062,18.512 52.478,19.209 52.864,19.929 C53.250,20.651 53.598,21.386 53.909,22.139 C54.221,22.893 54.496,23.659 54.733,24.440 C54.969,25.220 55.166,26.010 55.326,26.808 C55.485,27.608 55.604,28.414 55.684,29.224 C55.705,29.447 55.701,29.670 55.717,29.893 L61.822,29.893 L61.822,31.931 ZM33.148,54.414 C33.895,54.341 34.635,54.231 35.367,54.086 C36.103,53.939 36.828,53.757 37.546,53.541 C38.260,53.323 38.963,53.071 39.655,52.784 C40.346,52.498 41.022,52.179 41.685,51.825 C42.344,51.473 42.984,51.088 43.609,50.672 C44.232,50.256 44.833,49.811 45.412,49.336 C45.987,48.861 46.542,48.360 47.072,47.830 C47.601,47.300 48.104,46.746 48.578,46.167 C49.051,45.589 49.497,44.989 49.913,44.366 C50.331,43.741 50.715,43.100 51.069,42.440 C51.419,41.781 51.740,41.106 52.026,40.414 C52.315,39.721 52.566,39.018 52.782,38.302 C52.999,37.586 53.180,36.860 53.328,36.124 C53.475,35.390 53.582,34.651 53.658,33.906 C53.721,33.250 53.746,32.591 53.754,31.931 L31.927,31.931 L31.927,54.474 C32.334,54.456 32.742,54.454 33.148,54.414 ZM8.160,33.906 C8.233,34.653 8.343,35.391 8.490,36.124 C8.635,36.862 8.818,37.586 9.035,38.302 C9.252,39.019 9.505,39.723 9.789,40.414 C10.076,41.104 10.396,41.781 10.751,42.442 C11.103,43.102 11.487,43.743 11.903,44.365 C12.319,44.987 12.762,45.588 13.238,46.167 C13.713,46.746 14.217,47.300 14.746,47.830 C15.275,48.360 15.829,48.861 16.408,49.336 C16.985,49.811 17.586,50.256 18.209,50.671 C18.831,51.088 19.472,51.472 20.133,51.824 C20.793,52.180 21.470,52.498 22.160,52.784 C22.853,53.071 23.557,53.323 24.274,53.541 C24.990,53.757 25.714,53.940 26.449,54.086 C27.183,54.231 27.923,54.341 28.667,54.414 C29.073,54.454 29.481,54.456 29.889,54.474 L29.889,31.931 L8.063,31.931 C8.070,32.590 8.095,33.248 8.160,33.906 ZM28.667,8.918 C27.923,8.991 27.183,9.102 26.449,9.247 C25.714,9.393 24.990,9.575 24.274,9.792 C23.557,10.009 22.853,10.262 22.160,10.549 C21.468,10.834 20.791,11.154 20.133,11.507 C19.472,11.860 18.831,12.245 18.209,12.661 C17.586,13.077 16.987,13.522 16.406,13.997 C15.829,14.472 15.275,14.973 14.748,15.502 C14.217,16.033 13.713,16.586 13.240,17.165 C12.762,17.745 12.319,18.346 11.901,18.968 C11.487,19.588 11.103,20.230 10.751,20.890 C10.396,21.551 10.076,22.227 9.789,22.920 C9.505,23.610 9.252,24.314 9.035,25.031 C8.818,25.747 8.635,26.472 8.490,27.205 C8.343,27.941 8.233,28.680 8.162,29.424 C8.146,29.580 8.151,29.736 8.138,29.893 L29.889,29.893 L29.889,8.858 C29.481,8.876 29.073,8.878 28.667,8.918 ZM53.656,29.424 C53.582,28.682 53.475,27.942 53.328,27.208 C53.180,26.473 52.999,25.747 52.782,25.031 C52.566,24.315 52.315,23.611 52.026,22.920 C51.740,22.226 51.419,21.550 51.067,20.890 C50.715,20.232 50.331,19.590 49.915,18.968 C49.499,18.345 49.053,17.744 48.578,17.166 C48.104,16.586 47.601,16.033 47.072,15.503 C46.542,14.973 45.987,14.472 45.410,13.995 C44.831,13.522 44.232,13.077 43.609,12.660 C42.986,12.245 42.344,11.860 41.683,11.506 C41.024,11.154 40.348,10.835 39.655,10.549 C38.963,10.262 38.260,10.009 37.544,9.792 C36.828,9.575 36.103,9.393 35.367,9.247 C34.635,9.102 33.895,8.991 33.148,8.918 C32.742,8.878 32.334,8.876 31.927,8.858 L31.927,29.893 L53.679,29.893 C53.667,29.737 53.671,29.580 53.656,29.424 Z" class="cls-1"/>
</svg>
